<svg width="185" height="60" viewBox="0 0 185 60" fill="none" xmlns="http://www.w3.org/2000/svg">
<g clip-path="url(#clip0_502_245)">
<path d="M80.1665 59.1346H65.1802L74.5537 1.05298H89.5392L80.1665 59.1346Z" fill="white"/>
<path d="M134.493 2.47276C131.537 1.29757 126.849 0 121.052 0C106.252 0 95.8305 7.90857 95.7666 19.2154C95.6436 27.5576 103.228 32.1911 108.901 34.9726C114.699 37.815 116.67 39.6701 116.67 42.2037C116.611 46.0947 111.985 47.8883 107.67 47.8883C101.687 47.8883 98.4808 46.9636 93.6088 44.7988L91.6354 43.8708L89.5383 56.9089C93.0532 58.5136 99.5289 59.9376 106.252 60C121.977 60 132.214 52.2138 132.335 40.1645C132.395 33.5527 128.39 28.4865 119.756 24.3466C114.514 21.689 111.304 19.8971 111.304 17.1779C111.366 14.706 114.019 12.1741 119.936 12.1741C124.808 12.0501 128.388 13.2237 131.1 14.398L132.455 15.0148L134.493 2.47276Z" fill="white"/>
<path d="M154.411 38.5583C155.645 35.2216 160.394 22.3076 160.394 22.3076C160.332 22.4316 161.626 18.9093 162.366 16.7469L163.413 21.7516C163.413 21.7516 166.251 35.6544 166.868 38.5583C164.525 38.5583 157.371 38.5583 154.411 38.5583ZM172.91 1.05298H161.318C157.743 1.05298 155.027 2.10253 153.485 5.87203L131.225 59.1337H146.95C146.95 59.1337 149.538 51.9651 150.095 50.4212C151.82 50.4212 167.117 50.4212 169.336 50.4212C169.766 52.4603 171.124 59.1337 171.124 59.1337H185L172.91 1.05298Z" fill="white"/>
<path d="M52.6629 1.05298L37.9864 40.6591L36.3826 32.6265C33.6693 23.3579 25.1595 13.2879 15.6631 8.28074L29.1063 59.073H44.9539L68.5097 1.05298H52.6629Z" fill="white"/>
<path d="M24.3582 1.05298H0.24667L0 2.22653C18.8085 7.04641 31.265 18.6645 36.3828 32.629L31.1412 5.93527C30.2783 2.22571 27.6263 1.17534 24.3582 1.05298Z" fill="white"/>
</g>
<defs>
<clipPath id="clip0_502_245">
<rect width="185" height="60" fill="white"/>
</clipPath>
</defs>
</svg>
